<?xml version="1.0" encoding="utf-8"?>
<!-- Generator: Adobe Illustrator 22.0.1, SVG Export Plug-In . SVG Version: 6.00 Build 0)  -->
<svg version="1.1" id="레이어_1" xmlns="http://www.w3.org/2000/svg" xmlns:xlink="http://www.w3.org/1999/xlink" x="0px"
	 y="0px" viewBox="0 0 177 28" style="enable-background:new 0 0 177 28;" xml:space="preserve">
<style type="text/css">
	.st0{fill:#137B3B;}
	.st1{clip-path:url(#SVGID_2_);fill:#137B3B;}
	.st2{fill:#FFFFFF;}
</style>
<path class="st0" d="M26,11.6h2.9l-2.7-9.3L17,0.1v2.3H12V0.1L2.7,2.3l-2.1,9.3h2.3v4.8H0.3l2.3,9.2l9.4,1.9v-2.1H17v2.2l9.3-2
	l2.6-9.2H26V11.6z M24.7,16.5h-2.3l-1.5,4.1l-4,1.1v2.5H12v-2.5l-3.9-1.1l-1.2-4.1H4.5v-4.8h2.7l0.9-3.9L12,6.6V3.8H17v2.8l4,1.2
	l1.2,3.9h2.6V16.5z"/>
<g>
	<defs>
		<rect id="SVGID_1_" x="0.3" y="0" width="181.7" height="27.7"/>
	</defs>
	<clipPath id="SVGID_2_">
		<use xlink:href="#SVGID_1_"  style="overflow:visible;"/>
	</clipPath>
	<path class="st1" d="M21,13.9c0,3.5-2.9,6.4-6.4,6.4c-3.5,0-6.4-2.9-6.4-6.4c0-3.5,2.9-6.4,6.4-6.4C18.1,7.6,21,10.4,21,13.9"/>
</g>
<path class="st2" d="M173.2,15.9h-12v-2.6h15.4v5.7h-12v0.6h12v2.7h-13.7c-0.5,0-0.9-0.1-1.2-0.4c-0.3-0.3-0.5-0.8-0.5-1.4v-4h12
	V15.9z M173.2,5.8V4.9h3.4v7.7h-3.4v-4h-2.7V5.8H173.2z M167,4.9c0,1.4,0.2,2.4,0.7,3.1c0.6,0.8,1.7,1.4,3.3,1.6v3
	c-1.3-0.1-2.5-0.3-3.6-0.8c-1-0.5-1.7-1-2.1-1.7c-0.4,0.7-1.2,1.3-2.3,1.8c-1.1,0.5-2.3,0.8-3.5,0.8v-3c1.6-0.2,2.6-0.8,3.2-1.6
	c0.5-0.7,0.7-1.7,0.7-3.1H167z M140.6,15.7h3.4v3.5h12.1v3h-13.9c-0.5,0-0.9-0.1-1.2-0.4c-0.3-0.3-0.5-0.7-0.5-1.3V15.7z M144.1,14
	c-1.3,0.4-2.8,0.6-4.5,0.6v-3.1c2.4-0.1,4.1-0.5,5.3-1.3c1-0.7,1.5-1.5,1.5-2.5h-6.5V4.9H150v1.5c0,0.4,0,0.8-0.1,1.2
	c-0.1,0.4-0.1,0.8-0.2,1.1h2.9V4.9h3.4V17h-3.4v-5.3H148C147,12.7,145.7,13.5,144.1,14 M132,18.2h-9v1.1h9V18.2z M119.7,14.4h3.3
	v1.1h9v-1.1h3.4v6.1c0,0.6-0.2,1.1-0.5,1.4c-0.3,0.3-0.7,0.4-1.2,0.4h-12.4c-0.5,0-0.9-0.1-1.2-0.4c-0.3-0.3-0.5-0.8-0.5-1.4V14.4z
	 M135.4,10.7v2.8H132V4.9h3.4v2.8h2.3v3H135.4z M129,8.2c0.1,0.2,0.2,0.4,0.3,0.7c0.1,0.2,0.1,0.5,0.1,0.7c0,1.2-0.5,2.3-1.5,3.1
	c-0.9,0.8-2,1.2-3.3,1.2c-1.3,0-2.4-0.4-3.4-1.2c-1-0.8-1.5-1.9-1.5-3.1c0-0.2,0-0.5,0.1-0.7c0.1-0.2,0.2-0.5,0.3-0.7h-0.8V5.5h3.6
	V3.9h3.6v1.6h3.5v2.7H129z M123.3,8.7c-0.3,0.3-0.5,0.6-0.5,1.1c0,0.4,0.2,0.8,0.5,1c0.3,0.3,0.7,0.4,1.2,0.4c0.5,0,0.9-0.1,1.2-0.4
	c0.3-0.3,0.5-0.6,0.5-1c0-0.4-0.2-0.8-0.5-1.1c-0.3-0.3-0.7-0.4-1.2-0.4C124,8.2,123.6,8.4,123.3,8.7 M104.7,15.8
	c-0.6,0.5-0.8,1.2-0.8,1.9c0,0.8,0.3,1.4,0.8,1.9c0.5,0.5,1.2,0.7,1.9,0.7c0.8,0,1.4-0.2,1.9-0.7c0.6-0.5,0.8-1.1,0.8-1.9
	c0-0.8-0.3-1.4-0.8-1.9c-0.5-0.5-1.2-0.7-1.9-0.7C105.8,15.1,105.2,15.3,104.7,15.8 M104.9,12v-1.6h3.4V12h7v2.9h-3.5
	c0.3,0.4,0.5,0.8,0.7,1.3c0.2,0.5,0.3,1,0.3,1.5c0,1.6-0.7,3-2,4.1c-1.2,1-2.6,1.5-4.2,1.5c-1.6,0-3-0.5-4.2-1.5
	c-1.3-1.1-2-2.5-2-4.1c0-0.5,0.1-1,0.2-1.5c0.1-0.4,0.4-0.9,0.6-1.3h-3.4V12H104.9z M109.3,7.5c0.4,0.3,1.1,0.5,2.1,0.6
	c0.9,0.1,2,0.2,3.4,0.3v2.8c-1.9-0.1-3.5-0.2-4.8-0.4c-1.7-0.3-2.9-0.7-3.4-1.3c-0.5,0.5-1.7,1-3.4,1.3c-1.3,0.2-2.9,0.4-4.7,0.4
	V8.4c1.4,0,2.5-0.1,3.4-0.3c0.9-0.1,1.6-0.4,2.1-0.7h-5.5V4.9h16.3v2.7H109.3z M94.2,13.7v8.7h-3.4V4.9h3.4v5.9h2.3v3H94.2z
	 M81.3,8.8c-0.4,0.6-0.6,1.3-0.6,2.2c0,0.9,0.2,1.6,0.6,2.2c0.4,0.6,1.1,0.9,1.8,0.9c0.8,0,1.4-0.3,1.9-0.9c0.4-0.6,0.6-1.3,0.6-2.2
	c0-0.9-0.2-1.6-0.6-2.2c-0.5-0.6-1.1-1-1.9-1C82.4,7.8,81.8,8.2,81.3,8.8 M87.6,6.8c1,1.2,1.5,2.6,1.5,4.2c0,1.6-0.5,3-1.5,4.1
	c-1.1,1.3-2.6,1.9-4.4,1.9c-1.8,0-3.3-0.6-4.4-1.9c-1-1.2-1.5-2.5-1.5-4.1c0-1.6,0.5-3.1,1.5-4.2c1.1-1.3,2.6-2,4.4-2
	C85,4.9,86.5,5.5,87.6,6.8 M63.5,15.8c-0.6,0.5-0.8,1.2-0.8,1.9c0,0.8,0.3,1.4,0.8,1.9c0.5,0.5,1.2,0.7,1.9,0.7
	c0.8,0,1.4-0.2,1.9-0.7c0.6-0.5,0.8-1.1,0.8-1.9c0-0.8-0.3-1.4-0.8-1.9c-0.5-0.5-1.2-0.7-1.9-0.7C64.7,15.1,64,15.3,63.5,15.8
	 M67.1,12h7v2.9h-3.5c0.3,0.4,0.5,0.8,0.7,1.3c0.2,0.5,0.3,1,0.3,1.5c0,1.6-0.7,3-2,4.1c-1.2,1-2.6,1.5-4.2,1.5
	c-1.6,0-3-0.5-4.2-1.5c-1.3-1.1-2-2.5-2-4.1c0-0.5,0.1-1,0.2-1.5c0.1-0.4,0.4-0.9,0.6-1.3h-3.4V12h7v-0.8h-4.8
	c-0.5,0-0.9-0.1-1.2-0.4c-0.3-0.3-0.5-0.8-0.5-1.4V4.9h16.3v2.8H60.7v0.8h12.9v2.8h-6.5V12z M37.6,15.7H41v3.6h12.1v3H39.3
	c-0.5,0-0.9-0.1-1.2-0.4c-0.3-0.3-0.5-0.7-0.5-1.3V15.7z M49.6,4.9H53V17h-3.4V4.9z M43.6,4.9c0,2,0.3,3.5,0.8,4.5
	c0.6,1.2,1.7,1.8,3.2,2v3.1c-1.3-0.1-2.5-0.4-3.6-1c-1.1-0.6-1.8-1.3-2.2-2.1c-0.4,0.8-1.2,1.5-2.3,2.1c-1.1,0.6-2.3,0.9-3.5,0.9
	v-3.1c1.5-0.2,2.6-0.9,3.2-2.1c0.5-1,0.7-2.4,0.7-4.5H43.6z"/>
</svg>
